<svg width="32" height="32" viewBox="0 0 32 32" fill="none" xmlns="http://www.w3.org/2000/svg">
<path d="M14 5.5C14.83 5.5 15.5 6.17 15.5 7V16C15.5 15.17 16.17 14.5 17 14.5C17.83 14.5 18.5 15.17 18.5 16V16.5C18.5 15.67 19.17 15 20 15C20.83 15 21.5 15.67 21.5 16.5V17.5C21.5 16.67 22.17 16 23 16C23.83 16 24.5 16.67 24.5 17.5C24.5 17.5 24.5 22.65 24.5 24.09C24.5 24.49 24.42 25.09 24.31 25.74C23.94 27.91 22.05 29.5 19.85 29.5H15.79C14.53 29.5 13.4 28.9 12.47 28.05C12.46 28.05 12.46 28.04 12.46 28.04L10.49 26.29C9.79 25.66 9.25 24.88 8.91 24L6.9 18.45C6.73 17.98 6.95 17.46 7.4 17.25C7.64 17.14 7.88 17.09 8.13 17.09C8.76 17.09 9.37 17.441 9.68 18.04L11.52 22.24C12.14 21.78 12.5 21.05 12.5 20.29V7" stroke="#455A64" stroke-miterlimit="10" stroke-linecap="round" stroke-linejoin="round"/>
<path d="M11.171 4.172L10.464 3.465" stroke="#455A64" stroke-miterlimit="10" stroke-linecap="round" stroke-linejoin="round"/>
<path d="M14 3V2" stroke="#455A64" stroke-miterlimit="10" stroke-linecap="round" stroke-linejoin="round"/>
<path d="M16.829 4.172L17.536 3.465" stroke="#455A64" stroke-miterlimit="10" stroke-linecap="round" stroke-linejoin="round"/>
<path d="M18 7H19" stroke="#455A64" stroke-miterlimit="10" stroke-linecap="round" stroke-linejoin="round"/>
<path d="M9 7H10" stroke="#455A64" stroke-miterlimit="10" stroke-linecap="round" stroke-linejoin="round"/>
<path d="M14 5.5C14.83 5.5 15.5 6.17 15.5 7V16C15.5 15.17 16.17 14.5 17 14.5C17.83 14.5 18.5 15.17 18.5 16V16.5C18.5 15.67 19.17 15 20 15C20.83 15 21.5 15.67 21.5 16.5V17.5C21.5 16.67 22.17 16 23 16C23.83 16 24.5 16.67 24.5 17.5C24.5 17.5 24.5 22.65 24.5 24.09C24.5 24.49 24.42 25.09 24.31 25.74C23.94 27.91 22.05 29.5 19.85 29.5H15.79C14.53 29.5 13.4 28.9 12.47 28.05C12.46 28.05 12.46 28.04 12.46 28.04L10.49 26.29C9.79 25.66 9.25 24.88 8.91 24L6.9 18.45C6.73 17.98 6.95 17.46 7.4 17.25C7.64 17.14 7.88 17.09 8.13 17.09C8.76 17.09 9.37 17.441 9.68 18.04L11.52 22.24C12.14 21.78 12.5 21.05 12.5 20.29V7" stroke="#263238" stroke-miterlimit="10" stroke-linecap="round" stroke-linejoin="round"/>
<path d="M11.171 4.172L10.464 3.465" stroke="#263238" stroke-miterlimit="10" stroke-linecap="round" stroke-linejoin="round"/>
<path d="M14 3V2" stroke="#263238" stroke-miterlimit="10" stroke-linecap="round" stroke-linejoin="round"/>
<path d="M16.829 4.172L17.536 3.465" stroke="#263238" stroke-miterlimit="10" stroke-linecap="round" stroke-linejoin="round"/>
<path d="M18 7H19" stroke="#263238" stroke-miterlimit="10" stroke-linecap="round" stroke-linejoin="round"/>
<path d="M9 7H10" stroke="#263238" stroke-miterlimit="10" stroke-linecap="round" stroke-linejoin="round"/>
</svg>
